<svg xmlns="http://www.w3.org/2000/svg" viewBox="0 0 512 512">
  <rect width="512" height="512" rx="96" fill="#0d1117"/>
  <rect x="80" y="60" width="352" height="392" rx="32" fill="#161b22" stroke="#30363d" stroke-width="4"/>
  <rect x="120" y="40" width="272" height="48" rx="12" fill="#58a6ff"/>
  <rect x="140" y="52" width="180" height="8" rx="4" fill="#0d1117" opacity="0.5"/>
  <rect x="140" y="68" width="120" height="8" rx="4" fill="#0d1117" opacity="0.3"/>
  <rect x="120" y="120" width="272" height="6" rx="3" fill="#e6edf3" opacity="0.7"/>
  <rect x="120" y="148" width="230" height="6" rx="3" fill="#e6edf3" opacity="0.5"/>
  <rect x="120" y="176" width="260" height="6" rx="3" fill="#e6edf3" opacity="0.6"/>
  <rect x="120" y="204" width="190" height="6" rx="3" fill="#e6edf3" opacity="0.4"/>
  <rect x="120" y="232" width="272" height="6" rx="3" fill="#e6edf3" opacity="0.7"/>
  <rect x="120" y="260" width="210" height="6" rx="3" fill="#e6edf3" opacity="0.5"/>
  <rect x="120" y="288" width="250" height="6" rx="3" fill="#e6edf3" opacity="0.6"/>
  <rect x="120" y="316" width="170" height="6" rx="3" fill="#e6edf3" opacity="0.4"/>
  <rect x="120" y="344" width="272" height="6" rx="3" fill="#e6edf3" opacity="0.7"/>
  <rect x="120" y="372" width="200" height="6" rx="3" fill="#e6edf3" opacity="0.5"/>
  <rect x="120" y="400" width="240" height="6" rx="3" fill="#e6edf3" opacity="0.6"/>
  <circle cx="400" cy="400" r="56" fill="#3fb950"/>
  <path d="M380 400 L395 415 L425 385" stroke="#0d1117" stroke-width="8" stroke-linecap="round" stroke-linejoin="round" fill="none"/>
</svg>
